<?xml version="1.0" encoding="utf-8"?>
<svg version="1.1" xmlns:xlink="http://www.w3.org/1999/xlink" width="240px" height="240px" xmlns="http://www.w3.org/2000/svg">
  <g transform="matrix(1 0 0 1 -460 -1440 )">
    <path d="M 460 1440  L 700 1440  L 700 1680  L 460 1680  L 460 1440  " fill-rule="nonzero" fill="#cccccc" stroke="none" />
    <path d="M 477 1457  L 683 1457  L 683 1663  L 477 1663  L 477 1457  " fill-rule="nonzero" fill="#ffffff" stroke="none" />
    <path d="M 602.8 1512  C 592.72 1512  584.8 1504.08  584.8 1494  C 584.8 1483.92  592.72 1476  602.8 1476  C 612.88 1476  620.8 1483.92  620.8 1494  C 620.8 1504.08  612.88 1512  602.8 1512  " fill-rule="nonzero" fill="#cccccc" stroke="none" />
    <path d="M 483 1657  L 483 1550.3  L 531.5 1501.8  L 599.4 1540.6  L 638.2 1530.9  L 677 1540.6  L 677 1657  L 483 1657  " fill-rule="nonzero" fill="#169bd5" stroke="none" />
  </g>
</svg>